<svg xmlns="http://www.w3.org/2000/svg" width="16.085" height="16.084" viewBox="0 0 16.085 16.084"><defs><style>.a{fill:#b7b7b7;}</style></defs><path class="a" d="M9.583,8.162a.168.168,0,0,1,0-.237l6.208-6.207A1.006,1.006,0,1,0,14.367.3L8.16,6.5a.168.168,0,0,1-.237,0L1.716.3A1.005,1.005,0,1,0,.294,1.718L6.5,7.925a.168.168,0,0,1,0,.237L.294,14.37a1.005,1.005,0,1,0,1.422,1.421L7.923,9.584a.168.168,0,0,1,.237,0l6.207,6.208a1.005,1.005,0,0,0,1.422-1.421Z" transform="translate(0 -0.002)"/><script xmlns=""/></svg>